<mxfile host="app.diagrams.net" agent="Mozilla/5.0 (Windows NT 10.0; Win64; x64) AppleWebKit/537.36 (KHTML, like Gecko) Chrome/136.0.0.0 Safari/537.36" version="27.0.3">
  <diagram id="6a731a19-8d31-9384-78a2-239565b7b9f0" name="Page-1">
    <mxGraphModel dx="2593" dy="1427" grid="1" gridSize="10" guides="1" tooltips="1" connect="1" arrows="1" fold="1" page="1" pageScale="1" pageWidth="1169" pageHeight="827" background="none" math="0" shadow="0">
      <root>
        <mxCell id="0" />
        <mxCell id="1" parent="0" />
        <mxCell id="2" value="Início" style="shape=mxgraph.flowchart.terminator;strokeWidth=2;gradientColor=none;gradientDirection=north;fontStyle=0;html=1;" parent="1" vertex="1">
          <mxGeometry x="260" y="30" width="120" height="30" as="geometry" />
        </mxCell>
        <mxCell id="V0ttuZ0B0DOQV-9v9WsE-64" value="" style="edgeStyle=orthogonalEdgeStyle;rounded=0;orthogonalLoop=1;jettySize=auto;html=1;" edge="1" parent="1" source="3" target="V0ttuZ0B0DOQV-9v9WsE-63">
          <mxGeometry relative="1" as="geometry" />
        </mxCell>
        <mxCell id="3" value="Digitar um número" style="shape=mxgraph.flowchart.data;strokeWidth=2;gradientColor=none;gradientDirection=north;fontStyle=0;html=1;" parent="1" vertex="1">
          <mxGeometry x="240" y="100" width="159.5" height="60" as="geometry" />
        </mxCell>
        <mxCell id="5" value="Digitar um operador (+ - * /) ou q para sair" style="shape=mxgraph.flowchart.data;strokeWidth=2;gradientColor=none;gradientDirection=north;fontStyle=0;html=1;" parent="1" vertex="1">
          <mxGeometry x="155.25" y="300" width="329.5" height="70" as="geometry" />
        </mxCell>
        <mxCell id="V0ttuZ0B0DOQV-9v9WsE-58" value="" style="edgeStyle=orthogonalEdgeStyle;rounded=0;orthogonalLoop=1;jettySize=auto;html=1;" edge="1" parent="1" source="6" target="V0ttuZ0B0DOQV-9v9WsE-56">
          <mxGeometry relative="1" as="geometry" />
        </mxCell>
        <mxCell id="6" value="Operador válido?" style="shape=mxgraph.flowchart.decision;strokeWidth=2;gradientColor=none;gradientDirection=north;fontStyle=0;html=1;" parent="1" vertex="1">
          <mxGeometry x="251" y="393" width="140" height="77" as="geometry" />
        </mxCell>
        <mxCell id="7" style="fontStyle=1;strokeColor=#003366;strokeWidth=1;html=1;" parent="1" source="2" target="3" edge="1">
          <mxGeometry relative="1" as="geometry" />
        </mxCell>
        <mxCell id="9" style="entryX=0.5;entryY=0;entryPerimeter=0;fontStyle=1;strokeColor=#003366;strokeWidth=1;html=1;" parent="1" source="5" target="6" edge="1">
          <mxGeometry relative="1" as="geometry" />
        </mxCell>
        <mxCell id="10" value="" style="edgeStyle=elbowEdgeStyle;elbow=horizontal;entryX=0.905;entryY=0.5;entryPerimeter=0;exitX=1;exitY=0.5;exitPerimeter=0;fontStyle=1;strokeColor=#003366;strokeWidth=1;html=1;entryDx=0;entryDy=0;" parent="1" source="6" target="5" edge="1">
          <mxGeometry x="381" y="28.5" width="100" height="100" as="geometry">
            <mxPoint x="750" y="447" as="sourcePoint" />
            <mxPoint x="545" y="373.71000000000004" as="targetPoint" />
            <Array as="points">
              <mxPoint x="545" y="400" />
            </Array>
          </mxGeometry>
        </mxCell>
        <mxCell id="11" value="Não" style="text;fontStyle=0;html=1;strokeColor=none;gradientColor=none;fillColor=none;strokeWidth=2;" parent="1" vertex="1">
          <mxGeometry x="444.75" y="401" width="40" height="26" as="geometry" />
        </mxCell>
        <mxCell id="14" value="Sim" style="text;fontStyle=0;html=1;strokeColor=none;gradientColor=none;fillColor=none;strokeWidth=2;align=center;" parent="1" vertex="1">
          <mxGeometry x="330" y="480" width="40" height="26" as="geometry" />
        </mxCell>
        <mxCell id="22" value="Resultado" style="shape=mxgraph.flowchart.document;strokeWidth=2;gradientColor=none;gradientDirection=north;fontStyle=0;html=1;" parent="1" vertex="1">
          <mxGeometry x="258.75" y="1000" width="125.5" height="70" as="geometry" />
        </mxCell>
        <mxCell id="V0ttuZ0B0DOQV-9v9WsE-81" value="" style="edgeStyle=orthogonalEdgeStyle;rounded=0;orthogonalLoop=1;jettySize=auto;html=1;" edge="1" parent="1" source="24" target="22">
          <mxGeometry relative="1" as="geometry" />
        </mxCell>
        <mxCell id="24" value="A operação foi divisão?" style="shape=mxgraph.flowchart.decision;strokeWidth=2;gradientColor=none;gradientDirection=north;fontStyle=0;html=1;" parent="1" vertex="1">
          <mxGeometry x="239.5" y="860" width="164" height="78.5" as="geometry" />
        </mxCell>
        <mxCell id="V0ttuZ0B0DOQV-9v9WsE-60" value="" style="edgeStyle=orthogonalEdgeStyle;rounded=0;orthogonalLoop=1;jettySize=auto;html=1;" edge="1" parent="1" source="V0ttuZ0B0DOQV-9v9WsE-56" target="V0ttuZ0B0DOQV-9v9WsE-59">
          <mxGeometry relative="1" as="geometry" />
        </mxCell>
        <mxCell id="V0ttuZ0B0DOQV-9v9WsE-74" style="edgeStyle=orthogonalEdgeStyle;rounded=0;orthogonalLoop=1;jettySize=auto;html=1;" edge="1" parent="1" source="V0ttuZ0B0DOQV-9v9WsE-56">
          <mxGeometry relative="1" as="geometry">
            <mxPoint x="480" y="560" as="targetPoint" />
          </mxGeometry>
        </mxCell>
        <mxCell id="V0ttuZ0B0DOQV-9v9WsE-56" value="O operador foi &quot;q&quot;?" style="shape=mxgraph.flowchart.decision;strokeWidth=2;gradientColor=none;gradientDirection=north;fontStyle=0;html=1;" vertex="1" parent="1">
          <mxGeometry x="251" y="520" width="140" height="80" as="geometry" />
        </mxCell>
        <mxCell id="V0ttuZ0B0DOQV-9v9WsE-79" value="" style="edgeStyle=orthogonalEdgeStyle;rounded=0;orthogonalLoop=1;jettySize=auto;html=1;" edge="1" parent="1" source="V0ttuZ0B0DOQV-9v9WsE-59" target="V0ttuZ0B0DOQV-9v9WsE-62">
          <mxGeometry relative="1" as="geometry" />
        </mxCell>
        <mxCell id="V0ttuZ0B0DOQV-9v9WsE-59" value="Digitar um novo número" style="shape=mxgraph.flowchart.data;strokeWidth=2;gradientColor=none;gradientDirection=north;fontStyle=0;html=1;" vertex="1" parent="1">
          <mxGeometry x="231.63" y="650" width="178.75" height="60" as="geometry" />
        </mxCell>
        <mxCell id="V0ttuZ0B0DOQV-9v9WsE-80" value="" style="edgeStyle=orthogonalEdgeStyle;rounded=0;orthogonalLoop=1;jettySize=auto;html=1;" edge="1" parent="1" source="V0ttuZ0B0DOQV-9v9WsE-62" target="24">
          <mxGeometry relative="1" as="geometry" />
        </mxCell>
        <mxCell id="V0ttuZ0B0DOQV-9v9WsE-62" value="Calcular operação entre os dois números" style="rounded=1;whiteSpace=wrap;html=1;strokeWidth=2" vertex="1" parent="1">
          <mxGeometry x="261.5" y="760" width="120" height="60" as="geometry" />
        </mxCell>
        <mxCell id="V0ttuZ0B0DOQV-9v9WsE-65" value="" style="edgeStyle=orthogonalEdgeStyle;rounded=0;orthogonalLoop=1;jettySize=auto;html=1;" edge="1" parent="1" source="V0ttuZ0B0DOQV-9v9WsE-63" target="5">
          <mxGeometry relative="1" as="geometry" />
        </mxCell>
        <mxCell id="V0ttuZ0B0DOQV-9v9WsE-63" value="Número válido?" style="shape=mxgraph.flowchart.decision;strokeWidth=2;gradientColor=none;gradientDirection=north;fontStyle=0;html=1;" vertex="1" parent="1">
          <mxGeometry x="247.25" y="200" width="145" height="50" as="geometry" />
        </mxCell>
        <mxCell id="V0ttuZ0B0DOQV-9v9WsE-68" style="edgeStyle=orthogonalEdgeStyle;rounded=0;orthogonalLoop=1;jettySize=auto;html=1;exitX=1;exitY=0.5;exitDx=0;exitDy=0;exitPerimeter=0;entryX=0.905;entryY=0.5;entryDx=0;entryDy=0;entryPerimeter=0;" edge="1" parent="1" source="V0ttuZ0B0DOQV-9v9WsE-63" target="3">
          <mxGeometry relative="1" as="geometry">
            <Array as="points">
              <mxPoint x="440" y="225" />
              <mxPoint x="440" y="130" />
            </Array>
          </mxGeometry>
        </mxCell>
        <mxCell id="V0ttuZ0B0DOQV-9v9WsE-70" value="Não" style="text;fontStyle=0;html=1;strokeColor=none;gradientColor=none;fillColor=none;strokeWidth=2;" vertex="1" parent="1">
          <mxGeometry x="410.37" y="170" width="40" height="26" as="geometry" />
        </mxCell>
        <mxCell id="V0ttuZ0B0DOQV-9v9WsE-72" value="Sim" style="text;fontStyle=0;html=1;strokeColor=none;gradientColor=none;fillColor=none;strokeWidth=2;align=center;" vertex="1" parent="1">
          <mxGeometry x="320" y="260" width="40" height="26" as="geometry" />
        </mxCell>
        <mxCell id="V0ttuZ0B0DOQV-9v9WsE-75" value="Sim" style="text;fontStyle=0;html=1;strokeColor=none;gradientColor=none;fillColor=none;strokeWidth=2;align=center;" vertex="1" parent="1">
          <mxGeometry x="410.37" y="530" width="40" height="26" as="geometry" />
        </mxCell>
        <mxCell id="V0ttuZ0B0DOQV-9v9WsE-76" value="Fim" style="shape=mxgraph.flowchart.terminator;strokeWidth=2;gradientColor=none;gradientDirection=north;fontStyle=0;html=1;" vertex="1" parent="1">
          <mxGeometry x="480" y="545" width="120" height="30" as="geometry" />
        </mxCell>
        <mxCell id="V0ttuZ0B0DOQV-9v9WsE-77" value="Não" style="text;fontStyle=0;html=1;strokeColor=none;gradientColor=none;fillColor=none;strokeWidth=2;align=center;" vertex="1" parent="1">
          <mxGeometry x="320" y="610" width="40" height="26" as="geometry" />
        </mxCell>
        <mxCell id="V0ttuZ0B0DOQV-9v9WsE-82" value="Não" style="text;fontStyle=0;html=1;strokeColor=none;gradientColor=none;fillColor=none;strokeWidth=2;align=center;" vertex="1" parent="1">
          <mxGeometry x="330" y="950" width="40" height="26" as="geometry" />
        </mxCell>
        <mxCell id="V0ttuZ0B0DOQV-9v9WsE-83" value="O segundo número foi 0?" style="shape=mxgraph.flowchart.decision;strokeWidth=2;gradientColor=none;gradientDirection=north;fontStyle=0;html=1;" vertex="1" parent="1">
          <mxGeometry x="484.75" y="860" width="175.25" height="78.5" as="geometry" />
        </mxCell>
        <mxCell id="V0ttuZ0B0DOQV-9v9WsE-84" style="edgeStyle=orthogonalEdgeStyle;rounded=0;orthogonalLoop=1;jettySize=auto;html=1;exitX=1;exitY=0.5;exitDx=0;exitDy=0;exitPerimeter=0;entryX=0;entryY=0.5;entryDx=0;entryDy=0;entryPerimeter=0;" edge="1" parent="1" source="24" target="V0ttuZ0B0DOQV-9v9WsE-83">
          <mxGeometry relative="1" as="geometry" />
        </mxCell>
        <mxCell id="V0ttuZ0B0DOQV-9v9WsE-85" value="Sim" style="text;fontStyle=0;html=1;strokeColor=none;gradientColor=none;fillColor=none;strokeWidth=2;align=center;" vertex="1" parent="1">
          <mxGeometry x="420" y="870" width="40" height="26" as="geometry" />
        </mxCell>
        <mxCell id="V0ttuZ0B0DOQV-9v9WsE-101" style="edgeStyle=orthogonalEdgeStyle;rounded=0;orthogonalLoop=1;jettySize=auto;html=1;" edge="1" parent="1">
          <mxGeometry relative="1" as="geometry">
            <mxPoint x="320" y="1070" as="targetPoint" />
            <mxPoint x="845.25" y="933.8699999999999" as="sourcePoint" />
            <Array as="points">
              <mxPoint x="845" y="1119.87" />
              <mxPoint x="320" y="1119.87" />
            </Array>
          </mxGeometry>
        </mxCell>
        <mxCell id="V0ttuZ0B0DOQV-9v9WsE-93" value="Tratamento erro de divisão por 0&lt;div&gt;(Mantém resultado anterior)&amp;nbsp;&lt;/div&gt;" style="shape=mxgraph.flowchart.data;strokeWidth=2;gradientColor=none;gradientDirection=north;fontStyle=0;html=1;" vertex="1" parent="1">
          <mxGeometry x="720" y="864.62" width="250" height="69.25" as="geometry" />
        </mxCell>
        <mxCell id="V0ttuZ0B0DOQV-9v9WsE-94" style="edgeStyle=orthogonalEdgeStyle;rounded=0;orthogonalLoop=1;jettySize=auto;html=1;entryX=0.095;entryY=0.5;entryDx=0;entryDy=0;entryPerimeter=0;" edge="1" parent="1" source="V0ttuZ0B0DOQV-9v9WsE-83" target="V0ttuZ0B0DOQV-9v9WsE-93">
          <mxGeometry relative="1" as="geometry" />
        </mxCell>
        <mxCell id="V0ttuZ0B0DOQV-9v9WsE-96" value="Sim" style="text;fontStyle=0;html=1;strokeColor=none;gradientColor=none;fillColor=none;strokeWidth=2;align=center;" vertex="1" parent="1">
          <mxGeometry x="680" y="870" width="40" height="26" as="geometry" />
        </mxCell>
        <mxCell id="V0ttuZ0B0DOQV-9v9WsE-98" style="edgeStyle=orthogonalEdgeStyle;rounded=0;orthogonalLoop=1;jettySize=auto;html=1;entryX=1;entryY=0.5;entryDx=0;entryDy=0;entryPerimeter=0;" edge="1" parent="1">
          <mxGeometry relative="1" as="geometry">
            <mxPoint x="575" y="939.5" as="sourcePoint" />
            <mxPoint x="389.25" y="1034.5" as="targetPoint" />
            <Array as="points">
              <mxPoint x="575" y="938.5" />
              <mxPoint x="575" y="1034.5" />
            </Array>
          </mxGeometry>
        </mxCell>
        <mxCell id="V0ttuZ0B0DOQV-9v9WsE-100" value="Não" style="text;fontStyle=0;html=1;strokeColor=none;gradientColor=none;fillColor=none;strokeWidth=2;align=center;" vertex="1" parent="1">
          <mxGeometry x="460" y="1010" width="40" height="26" as="geometry" />
        </mxCell>
        <mxCell id="V0ttuZ0B0DOQV-9v9WsE-106" value="" style="endArrow=classic;html=1;rounded=0;exitX=-0.006;exitY=0.6;exitDx=0;exitDy=0;exitPerimeter=0;" edge="1" parent="1" source="22">
          <mxGeometry width="50" height="50" relative="1" as="geometry">
            <mxPoint x="250" y="1040" as="sourcePoint" />
            <mxPoint x="190" y="320" as="targetPoint" />
            <Array as="points">
              <mxPoint x="60" y="1040" />
              <mxPoint x="60" y="740" />
              <mxPoint x="60" y="320" />
            </Array>
          </mxGeometry>
        </mxCell>
      </root>
    </mxGraphModel>
  </diagram>
</mxfile>
